<svg xmlns="http://www.w3.org/2000/svg" viewBox="270 250 1400 1400">
  <title>HomeVentory</title>
  <defs>
    <linearGradient id="lidTop" x1="0" y1="0" x2="1" y2="1">
      <stop offset="0" stop-color="#5079ab"/>
      <stop offset="1" stop-color="#335a8e"/>
    </linearGradient>
    <linearGradient id="boxLeft" x1="0" y1="0" x2="1" y2="1">
      <stop offset="0" stop-color="#dba26b"/>
      <stop offset="1" stop-color="#c88a52"/>
    </linearGradient>
    <linearGradient id="boxRight" x1="0" y1="0" x2="1" y2="0">
      <stop offset="0" stop-color="#c27f48"/>
      <stop offset="1" stop-color="#b8743f"/>
    </linearGradient>
    <filter id="shadow" x="-20%" y="-50%" width="140%" height="200%">
      <feGaussianBlur stdDeviation="22"/>
    </filter>
  </defs>

  <ellipse cx="1000" cy="1355" rx="560" ry="80" fill="#000" opacity="0.18" filter="url(#shadow)"/>

  <g stroke-linejoin="round" stroke-width="26">
    <!-- box body -->
    <polygon points="360.0,778.9 985.0,938.3 985.0,1385.0 360.0,1225.6" fill="url(#boxLeft)" stroke="#8c5631"/>
    <polygon points="985.0,938.3 1580.0,688.4 1580.0,1135.1 985.0,1385.0" fill="url(#boxRight)" stroke="#8c5631"/>

  </g>
  <g stroke-linejoin="round" stroke-width="20">
    <!-- lid -->
    <polygon points="325.0,690.0 985.0,858.3 985.0,1048.3 325.0,880.0" fill="#355b8f" stroke="#223f6c"/>
    <polygon points="985.0,858.3 1620.0,591.6 1620.0,781.6 985.0,1048.3" fill="#2a4b7d" stroke="#223f6c"/>
    <polygon points="960.0,423.3 1620.0,591.6 985.0,858.3 325.0,690.0" fill="url(#lidTop)" stroke="#223f6c"/>
  </g>
  <!-- lid edge highlight -->
  <polyline points="345.0,712.0 985.0,880.3 1600.0,613.6"
    fill="none" stroke="#fff" stroke-opacity="0.22" stroke-width="8" stroke-linecap="round" stroke-linejoin="round"/>

  <!-- sticker on the left face -->
  <g transform="matrix(1 0.255 0 1 0 0)">
    <rect x="424" y="887" width="466" height="238" rx="16" fill="#000" opacity="0.15"/>
    <path d="M436 881h400l44 44v178a14 14 0 0 1 -14 14h-430a14 14 0 0 1 -14 -14v-208a14 14 0 0 1 14 -14z" fill="#f8f8f6"/>
    <path d="M836 881v34a10 10 0 0 0 10 10h34z" fill="#d9d9d6"/>
    <path fill="#111" d="M452.00,905.00h9.33v9.33h-9.33zM461.33,905.00h9.33v9.33h-9.33zM470.67,905.00h9.33v9.33h-9.33zM480.00,905.00h9.33v9.33h-9.33zM489.33,905.00h9.33v9.33h-9.33zM498.67,905.00h9.33v9.33h-9.33zM508.00,905.00h9.33v9.33h-9.33zM526.67,905.00h9.33v9.33h-9.33zM545.33,905.00h9.33v9.33h-9.33zM554.67,905.00h9.33v9.33h-9.33zM564.00,905.00h9.33v9.33h-9.33zM582.67,905.00h9.33v9.33h-9.33zM592.00,905.00h9.33v9.33h-9.33zM601.33,905.00h9.33v9.33h-9.33zM610.67,905.00h9.33v9.33h-9.33zM620.00,905.00h9.33v9.33h-9.33zM629.33,905.00h9.33v9.33h-9.33zM638.67,905.00h9.33v9.33h-9.33zM452.00,914.33h9.33v9.33h-9.33zM508.00,914.33h9.33v9.33h-9.33zM545.33,914.33h9.33v9.33h-9.33zM554.67,914.33h9.33v9.33h-9.33zM582.67,914.33h9.33v9.33h-9.33zM638.67,914.33h9.33v9.33h-9.33zM452.00,923.67h9.33v9.33h-9.33zM470.67,923.67h9.33v9.33h-9.33zM480.00,923.67h9.33v9.33h-9.33zM489.33,923.67h9.33v9.33h-9.33zM508.00,923.67h9.33v9.33h-9.33zM526.67,923.67h9.33v9.33h-9.33zM536.00,923.67h9.33v9.33h-9.33zM554.67,923.67h9.33v9.33h-9.33zM582.67,923.67h9.33v9.33h-9.33zM601.33,923.67h9.33v9.33h-9.33zM610.67,923.67h9.33v9.33h-9.33zM620.00,923.67h9.33v9.33h-9.33zM638.67,923.67h9.33v9.33h-9.33zM452.00,933.00h9.33v9.33h-9.33zM470.67,933.00h9.33v9.33h-9.33zM480.00,933.00h9.33v9.33h-9.33zM489.33,933.00h9.33v9.33h-9.33zM508.00,933.00h9.33v9.33h-9.33zM526.67,933.00h9.33v9.33h-9.33zM536.00,933.00h9.33v9.33h-9.33zM564.00,933.00h9.33v9.33h-9.33zM582.67,933.00h9.33v9.33h-9.33zM601.33,933.00h9.33v9.33h-9.33zM610.67,933.00h9.33v9.33h-9.33zM620.00,933.00h9.33v9.33h-9.33zM638.67,933.00h9.33v9.33h-9.33zM452.00,942.33h9.33v9.33h-9.33zM470.67,942.33h9.33v9.33h-9.33zM480.00,942.33h9.33v9.33h-9.33zM489.33,942.33h9.33v9.33h-9.33zM508.00,942.33h9.33v9.33h-9.33zM526.67,942.33h9.33v9.33h-9.33zM554.67,942.33h9.33v9.33h-9.33zM582.67,942.33h9.33v9.33h-9.33zM601.33,942.33h9.33v9.33h-9.33zM610.67,942.33h9.33v9.33h-9.33zM620.00,942.33h9.33v9.33h-9.33zM638.67,942.33h9.33v9.33h-9.33zM452.00,951.67h9.33v9.33h-9.33zM508.00,951.67h9.33v9.33h-9.33zM536.00,951.67h9.33v9.33h-9.33zM545.33,951.67h9.33v9.33h-9.33zM554.67,951.67h9.33v9.33h-9.33zM564.00,951.67h9.33v9.33h-9.33zM582.67,951.67h9.33v9.33h-9.33zM638.67,951.67h9.33v9.33h-9.33zM452.00,961.00h9.33v9.33h-9.33zM461.33,961.00h9.33v9.33h-9.33zM470.67,961.00h9.33v9.33h-9.33zM480.00,961.00h9.33v9.33h-9.33zM489.33,961.00h9.33v9.33h-9.33zM498.67,961.00h9.33v9.33h-9.33zM508.00,961.00h9.33v9.33h-9.33zM526.67,961.00h9.33v9.33h-9.33zM545.33,961.00h9.33v9.33h-9.33zM564.00,961.00h9.33v9.33h-9.33zM582.67,961.00h9.33v9.33h-9.33zM592.00,961.00h9.33v9.33h-9.33zM601.33,961.00h9.33v9.33h-9.33zM610.67,961.00h9.33v9.33h-9.33zM620.00,961.00h9.33v9.33h-9.33zM629.33,961.00h9.33v9.33h-9.33zM638.67,961.00h9.33v9.33h-9.33zM554.67,970.33h9.33v9.33h-9.33zM564.00,970.33h9.33v9.33h-9.33zM452.00,979.67h9.33v9.33h-9.33zM461.33,979.67h9.33v9.33h-9.33zM470.67,979.67h9.33v9.33h-9.33zM480.00,979.67h9.33v9.33h-9.33zM508.00,979.67h9.33v9.33h-9.33zM526.67,979.67h9.33v9.33h-9.33zM536.00,979.67h9.33v9.33h-9.33zM545.33,979.67h9.33v9.33h-9.33zM554.67,979.67h9.33v9.33h-9.33zM564.00,979.67h9.33v9.33h-9.33zM573.33,979.67h9.33v9.33h-9.33zM601.33,979.67h9.33v9.33h-9.33zM610.67,979.67h9.33v9.33h-9.33zM620.00,979.67h9.33v9.33h-9.33zM638.67,979.67h9.33v9.33h-9.33zM452.00,989.00h9.33v9.33h-9.33zM517.33,989.00h9.33v9.33h-9.33zM536.00,989.00h9.33v9.33h-9.33zM545.33,989.00h9.33v9.33h-9.33zM554.67,989.00h9.33v9.33h-9.33zM564.00,989.00h9.33v9.33h-9.33zM573.33,989.00h9.33v9.33h-9.33zM601.33,989.00h9.33v9.33h-9.33zM610.67,989.00h9.33v9.33h-9.33zM638.67,989.00h9.33v9.33h-9.33zM489.33,998.33h9.33v9.33h-9.33zM498.67,998.33h9.33v9.33h-9.33zM508.00,998.33h9.33v9.33h-9.33zM526.67,998.33h9.33v9.33h-9.33zM536.00,998.33h9.33v9.33h-9.33zM545.33,998.33h9.33v9.33h-9.33zM554.67,998.33h9.33v9.33h-9.33zM582.67,998.33h9.33v9.33h-9.33zM592.00,998.33h9.33v9.33h-9.33zM620.00,998.33h9.33v9.33h-9.33zM629.33,998.33h9.33v9.33h-9.33zM638.67,998.33h9.33v9.33h-9.33zM452.00,1007.67h9.33v9.33h-9.33zM480.00,1007.67h9.33v9.33h-9.33zM489.33,1007.67h9.33v9.33h-9.33zM517.33,1007.67h9.33v9.33h-9.33zM554.67,1007.67h9.33v9.33h-9.33zM610.67,1007.67h9.33v9.33h-9.33zM629.33,1007.67h9.33v9.33h-9.33zM452.00,1017.00h9.33v9.33h-9.33zM470.67,1017.00h9.33v9.33h-9.33zM480.00,1017.00h9.33v9.33h-9.33zM498.67,1017.00h9.33v9.33h-9.33zM508.00,1017.00h9.33v9.33h-9.33zM517.33,1017.00h9.33v9.33h-9.33zM526.67,1017.00h9.33v9.33h-9.33zM536.00,1017.00h9.33v9.33h-9.33zM564.00,1017.00h9.33v9.33h-9.33zM582.67,1017.00h9.33v9.33h-9.33zM601.33,1017.00h9.33v9.33h-9.33zM638.67,1017.00h9.33v9.33h-9.33zM526.67,1026.33h9.33v9.33h-9.33zM536.00,1026.33h9.33v9.33h-9.33zM554.67,1026.33h9.33v9.33h-9.33zM573.33,1026.33h9.33v9.33h-9.33zM601.33,1026.33h9.33v9.33h-9.33zM620.00,1026.33h9.33v9.33h-9.33zM638.67,1026.33h9.33v9.33h-9.33zM452.00,1035.67h9.33v9.33h-9.33zM461.33,1035.67h9.33v9.33h-9.33zM470.67,1035.67h9.33v9.33h-9.33zM480.00,1035.67h9.33v9.33h-9.33zM489.33,1035.67h9.33v9.33h-9.33zM498.67,1035.67h9.33v9.33h-9.33zM508.00,1035.67h9.33v9.33h-9.33zM545.33,1035.67h9.33v9.33h-9.33zM554.67,1035.67h9.33v9.33h-9.33zM564.00,1035.67h9.33v9.33h-9.33zM582.67,1035.67h9.33v9.33h-9.33zM592.00,1035.67h9.33v9.33h-9.33zM601.33,1035.67h9.33v9.33h-9.33zM610.67,1035.67h9.33v9.33h-9.33zM452.00,1045.00h9.33v9.33h-9.33zM508.00,1045.00h9.33v9.33h-9.33zM536.00,1045.00h9.33v9.33h-9.33zM545.33,1045.00h9.33v9.33h-9.33zM573.33,1045.00h9.33v9.33h-9.33zM610.67,1045.00h9.33v9.33h-9.33zM620.00,1045.00h9.33v9.33h-9.33zM629.33,1045.00h9.33v9.33h-9.33zM638.67,1045.00h9.33v9.33h-9.33zM452.00,1054.33h9.33v9.33h-9.33zM470.67,1054.33h9.33v9.33h-9.33zM480.00,1054.33h9.33v9.33h-9.33zM489.33,1054.33h9.33v9.33h-9.33zM508.00,1054.33h9.33v9.33h-9.33zM536.00,1054.33h9.33v9.33h-9.33zM564.00,1054.33h9.33v9.33h-9.33zM573.33,1054.33h9.33v9.33h-9.33zM592.00,1054.33h9.33v9.33h-9.33zM610.67,1054.33h9.33v9.33h-9.33zM620.00,1054.33h9.33v9.33h-9.33zM452.00,1063.67h9.33v9.33h-9.33zM470.67,1063.67h9.33v9.33h-9.33zM480.00,1063.67h9.33v9.33h-9.33zM489.33,1063.67h9.33v9.33h-9.33zM508.00,1063.67h9.33v9.33h-9.33zM526.67,1063.67h9.33v9.33h-9.33zM536.00,1063.67h9.33v9.33h-9.33zM545.33,1063.67h9.33v9.33h-9.33zM573.33,1063.67h9.33v9.33h-9.33zM610.67,1063.67h9.33v9.33h-9.33zM629.33,1063.67h9.33v9.33h-9.33zM452.00,1073.00h9.33v9.33h-9.33zM470.67,1073.00h9.33v9.33h-9.33zM480.00,1073.00h9.33v9.33h-9.33zM489.33,1073.00h9.33v9.33h-9.33zM508.00,1073.00h9.33v9.33h-9.33zM526.67,1073.00h9.33v9.33h-9.33zM536.00,1073.00h9.33v9.33h-9.33zM545.33,1073.00h9.33v9.33h-9.33zM564.00,1073.00h9.33v9.33h-9.33zM582.67,1073.00h9.33v9.33h-9.33zM610.67,1073.00h9.33v9.33h-9.33zM620.00,1073.00h9.33v9.33h-9.33zM452.00,1082.33h9.33v9.33h-9.33zM508.00,1082.33h9.33v9.33h-9.33zM526.67,1082.33h9.33v9.33h-9.33zM573.33,1082.33h9.33v9.33h-9.33zM582.67,1082.33h9.33v9.33h-9.33zM601.33,1082.33h9.33v9.33h-9.33zM638.67,1082.33h9.33v9.33h-9.33zM452.00,1091.67h9.33v9.33h-9.33zM461.33,1091.67h9.33v9.33h-9.33zM470.67,1091.67h9.33v9.33h-9.33zM480.00,1091.67h9.33v9.33h-9.33zM489.33,1091.67h9.33v9.33h-9.33zM498.67,1091.67h9.33v9.33h-9.33zM508.00,1091.67h9.33v9.33h-9.33zM526.67,1091.67h9.33v9.33h-9.33zM536.00,1091.67h9.33v9.33h-9.33zM564.00,1091.67h9.33v9.33h-9.33zM582.67,1091.67h9.33v9.33h-9.33zM592.00,1091.67h9.33v9.33h-9.33zM601.33,1091.67h9.33v9.33h-9.33zM610.67,1091.67h9.33v9.33h-9.33z"/>
    <g fill="#6e6e6e"><rect x="700" y="924" width="6" height="40"/><rect x="712" y="924" width="3" height="40"/><rect x="720" y="924" width="8" height="40"/><rect x="734" y="924" width="3" height="40"/><rect x="742" y="924" width="5" height="40"/><rect x="753" y="924" width="3" height="40"/><rect x="761" y="924" width="9" height="40"/><rect x="776" y="924" width="3" height="40"/><rect x="784" y="924" width="5" height="40"/><rect x="795" y="924" width="3" height="40"/></g>
    <rect x="700" y="984" width="130" height="9" rx="4.5" fill="#9a9a9a"/>
    <rect x="700" y="1003" width="95" height="9" rx="4.5" fill="#b5b5b5"/>
    <path fill="#666" d="M702 1092v-26c0-12 6-20 18-21l26-3c6 0 9 3 13 8 6 8 14 12 26 14l46 9c14 3 22 9 22 19v6c0 4-3 7-7 7h-137c-4 0-7-3-7-7z"/>
    <path d="M763 1058l10-8M776 1063l10-8M789 1067l10-8" stroke="#f8f8f6" stroke-width="5" stroke-linecap="round"/>
    <rect x="702" y="1088" width="151" height="6" fill="#f8f8f6" opacity="0.6"/>
  </g>
</svg>
